<?xml version="1.0" encoding="utf-8"?>
<!-- Generator: Adobe Illustrator 15.1.0, SVG Export Plug-In . SVG Version: 6.00 Build 0)  -->
<!DOCTYPE svg PUBLIC "-//W3C//DTD SVG 1.1//EN" "http://www.w3.org/Graphics/SVG/1.1/DTD/svg11.dtd">
<svg version="1.1" id="Layer_1" xmlns="http://www.w3.org/2000/svg" xmlns:xlink="http://www.w3.org/1999/xlink" x="0px" y="0px"
	 width="766.298px" height="276.352px" viewBox="0 0 766.298 276.352" enable-background="new 0 0 766.298 276.352"
	 xml:space="preserve">
<g>
	<polygon fill="#231F20" points="187.382,276.349 187.382,164.942 51.965,164.942 51.965,276.349 0,276.349 0,0.786 51.965,0.786 
		51.965,116.917 187.382,116.917 187.382,0.786 238.951,0.786 238.951,276.349 	"/>
	<path fill="#231F20" d="M532.228,275.955h-61.805l-80.308-92.117h-49.995v92.117h-51.962V0c43.696,0,87.392,0.393,131.087,0.393
		c64.953,0.394,99.203,43.696,99.203,91.33c0,37.792-17.321,75.977-69.677,86.604l83.455,94.085V275.955z M340.121,48.814v88.179
		h79.125c33.067,0,47.238-22.046,47.238-44.089c0-22.046-14.563-44.09-47.238-44.09H340.121z"/>
	<path fill="#37B34A" d="M757.298,54.781h-203.57c-4.97,0-9,4.03-9,9v203.57c0,4.97,4.03,9,9,9h203.57c4.97,0,9-4.03,9-9V63.781
		C766.298,58.811,762.268,54.781,757.298,54.781z M715.749,232.932h-18.53l-41.71-56.9l-41.71,56.9h-18.53v-3.37l0.431-0.57
		l49.489-65.81l-46.22-61.621v-3.37h18.8l37.74,51.859l37.74-51.859h18.8v3.37l-46.21,61.621l49.91,66.38V232.932z"/>
</g>
</svg>
